Think Like A Man 2012 TS Xvid Read NFO UnKnOwN


 Four women have given up on getting their men to do what they want until they find a how to book written by Steve Harvey. They start using his advice about relationships, and their men start falling in line, until the men discover what the women have been doing, then the war is on.Written by Douglas Young (the-movie-guy)  
 
http://www.imdb.com/title/tt1621045/

General Information
 Encoded By .......:UnKnOwN 
 Runtime ..........:1:57 
 IMDb URL .........:http://www.imdb.com/title/tt1621045/ 
 Language .........:English 
 File Size ........:1.37gb 
 Release Date ......... 2012 
 Source ......... Nunya Biz 
 File Type ......... Single AVI 
 PS3 Compatible ....... Go For It 
 Genre ......... Comedy/Romance

Video Information
 ID : 0 
 Format : MPEG-4 Visual 
 Format profile : Advanced Simple@L5 
 Format settings, BVOP : Yes 
 Format settings, QPel : No 
 Format settings, GMC : No warppoints 
 Format settings, Matrix : Custom 
 Codec ID : XVID 
 Codec ID/Hint : XviD 
 Duration : 1h 57mn 
 Bit rate : 1400kbps 
 Width : 680pixels 
 Height : 254pixels 
 Display aspect ratio : 2:67 
 Frame rate : 29.997fps 
 Color space : YUV 
 Chroma subsampling : 4:2:0 
 Bit depth : 8 bits 
 Scan type : Progressive 
 Bits/(Pixel*Frame) : 0.234 
 Stream size : 892 MiB (86%) 
 Writing library : XviD 1.2.1 (UTC 2008-12-04) 

Audio Information
 ID : 1 
 Format : Mp3 
 Format/Info : MPEG 
 Mode extension : CM (complete main) 
 Codec ID : 2000 
 Duration : 1h 26mn 
 Bit rate mode : Constant 
 Bit rate : 128kbps 
 Channel(s) : 2channels 
 Channel positions : Front: L R 
 Sampling rate : 48.0 KHz 
 Bit depth : 16 bits 
 Stream size : 302 MiB 
 Alignment : Aligned on interleaves 
 Interleave, duration : 42 ms (1.00 video frame) 
 Interleave, preload duration : 512 ms


